<svg width="1433" height="249" viewBox="0 0 1433 249" fill="none" xmlns="http://www.w3.org/2000/svg">
<path d="M40.3406 17.1017C40.3406 41.9501 38.5865 71.1836 35.0785 104.802C29.5242 156.545 26.4547 185.779 25.87 192.502C25.87 195.133 25.1392 202.588 23.6775 214.866C22.8005 222.759 22.362 230.214 22.362 237.23C22.362 244.538 18.7078 248.192 11.3994 248.192C3.79874 248.192 -0.00161112 244.538 -0.00161112 237.23C-0.00161112 235.183 1.16773 219.69 3.5064 190.748C9.35309 112.987 12.2764 54.8128 12.2764 16.2247C12.2764 5.40828 16.8076 9.28173e-05 25.87 9.28173e-05C29.6703 9.28173e-05 33.0322 1.60793 35.9555 4.82362C38.8789 7.74696 40.3406 11.8396 40.3406 17.1017ZM137.112 38.1498C135.358 50.4278 133.312 72.0606 130.973 103.048C128.635 133.743 126.442 155.668 124.396 168.823C123.519 173.793 120.596 176.278 115.626 176.278C108.61 176.278 105.54 172.916 106.417 166.192C108.171 156.253 109.048 143.975 109.048 129.358C109.048 122.927 108.756 112.987 108.171 99.54C107.879 86.0926 107.733 76.0071 107.733 69.2834C107.733 55.5437 108.317 43.9965 109.487 34.6417C110.948 24.9947 115.918 20.1712 124.396 20.1712C128.489 20.1712 131.85 21.779 134.481 24.9947C137.112 28.2104 137.989 32.5954 137.112 38.1498ZM320.817 107.433C320.817 128.481 317.455 144.413 310.732 155.23C303.131 167.215 289.684 176.424 270.39 182.855C269.22 183.44 268.051 183.732 266.882 183.732C260.743 183.732 257.673 180.371 257.673 173.647C257.673 169.554 259.866 166.777 264.251 165.315C286.76 157.715 298.015 138.421 298.015 107.433C298.015 85.2156 297.869 73.2299 297.577 71.4759C296.115 53.3512 291.876 44.2888 284.86 44.2888C267.905 44.2888 255.042 57.7362 246.272 84.631C246.857 87.262 246.126 89.6006 244.079 91.647C237.94 113.864 235.894 133.597 237.94 150.845C238.817 156.399 237.502 160.93 233.994 164.438C230.486 167.654 226.247 169.262 221.277 169.262C211.923 169.262 206.661 164.584 205.491 155.23C204.322 145.583 205.345 133.158 208.561 117.957C212.069 102.756 217.331 88.139 224.347 74.1069C217.916 63.8752 209.146 54.082 198.037 44.7273C196.575 45.312 194.675 45.6043 192.336 45.6043C190.29 45.8966 187.074 45.7505 182.689 45.1658C176.55 41.9501 173.481 37.1266 173.481 30.6952C173.481 26.3102 175.089 22.3637 178.304 18.8557C181.228 15.3477 185.028 13.5937 189.705 13.5937C192.336 13.5937 194.967 14.1783 197.598 15.3477C201.399 19.7327 205.637 24.5562 210.315 29.8182C219.377 37.4189 226.978 47.066 233.117 58.7593C248.611 35.0802 265.858 23.2407 284.86 23.2407C301.231 23.2407 312.047 34.0571 317.309 55.6898C319.648 65.6292 320.817 82.8769 320.817 107.433ZM503.549 100.417C503.549 106.264 498.141 125.996 487.325 159.615C486.155 164 483.232 166.192 478.555 166.192C471.831 166.192 468.469 163.123 468.469 156.984C468.469 155.814 468.761 154.645 469.346 153.476C477.239 128.335 481.186 110.649 481.186 100.417C481.186 89.893 479.139 81.9999 475.047 76.7379C471.831 72.6452 466.277 69.7219 458.384 67.9679C450.783 65.9215 443.182 64.0214 435.581 62.2674L386.908 67.5294C381.938 67.5294 377.992 65.9215 375.068 62.7059C372.145 59.4902 370.683 55.6898 370.683 51.3048C370.683 46.9198 372.145 43.1194 375.068 39.9038C377.992 36.3958 381.938 34.6417 386.908 34.6417L438.651 40.7808C464.084 46.9198 479.432 51.5971 484.694 54.8128C497.264 62.9982 503.549 78.1996 503.549 100.417ZM684.596 79.3689C684.596 91.9393 680.941 110.21 673.633 134.182C666.325 157.861 662.671 175.839 662.671 188.117C662.671 192.502 660.478 194.695 656.093 194.695C652 194.695 649.954 192.502 649.954 188.117C649.954 175.839 652 157.715 656.093 133.743C660.478 109.772 662.671 91.647 662.671 79.3689C662.671 62.7059 652.293 54.3743 631.537 54.3743C624.521 54.3743 616.482 55.6898 607.419 58.3208C596.311 61.2442 588.418 65.1907 583.74 70.1604C580.232 73.3761 576.432 74.9839 572.339 74.9839C567.662 74.9839 563.569 73.3761 560.061 70.1604C556.845 66.6524 555.238 62.7059 555.238 58.3208C555.238 53.9358 556.992 49.9893 560.5 46.4813C566.931 40.3423 578.624 36.3958 595.58 34.6417C599.965 34.3494 611.951 34.2032 631.537 34.2032C666.909 34.2032 684.596 49.2585 684.596 79.3689ZM590.756 116.203C590.756 117.957 589.441 142.075 586.81 188.556C586.81 192.064 584.91 193.818 581.109 193.818C577.309 193.818 575.409 191.772 575.409 187.679C575.993 179.201 574.678 167.654 571.462 153.037C568.247 137.251 566.639 124.973 566.639 116.203C566.639 105.387 570.585 99.9785 578.478 99.9785C586.664 99.9785 590.756 105.387 590.756 116.203ZM1015.82 89.016C1018.45 95.155 1019.76 101.586 1019.76 108.31C1019.76 113.28 1018.74 120.734 1016.69 130.674C1014.65 140.321 1013.62 147.775 1013.62 153.037C1013.62 158.299 1010.99 160.93 1005.73 160.93C1000.47 160.93 997.837 158.299 997.837 153.037C997.837 149.237 998.129 143.829 998.714 136.813C999.298 129.504 999.591 124.096 999.591 120.588C999.591 111.818 998.129 104.217 995.206 97.786C991.698 89.3083 985.413 82.4384 976.35 77.1764C967.58 71.6221 958.664 68.8449 949.602 68.8449C951.063 68.8449 947.263 68.6987 938.201 68.4064C934.108 68.1141 930.6 68.5526 927.676 69.7219C924.753 70.5989 922.122 72.3529 919.783 74.9839C917.737 77.6149 915.691 80.0998 913.644 82.4384L910.575 93.401C910.575 123.804 906.044 150.991 896.981 174.962C884.703 208.581 865.848 225.39 840.415 225.39C837.784 225.39 833.837 224.952 828.575 224.075C823.021 223.198 818.928 222.759 816.297 222.759C809.573 222.759 806.211 219.397 806.211 212.673C806.211 206.242 809.573 203.026 816.297 203.026C831.498 203.026 842.315 201.419 848.746 198.203C856.639 194.11 864.386 185.194 871.987 171.454C884.265 149.237 890.404 123.219 890.404 93.401L886.457 81.5614C882.365 75.1301 882.365 68.9911 886.457 63.1444C889.381 58.467 894.496 55.836 901.805 55.2513C906.19 55.5437 912.914 55.1052 921.976 53.9358C934.546 49.5508 943.755 47.3583 949.602 47.3583C962.757 47.3583 975.765 51.3048 988.628 59.1978C1001.49 66.7985 1010.55 76.7379 1015.82 89.016ZM1116.18 23.2407C1116.18 29.0874 1113.98 37.1266 1109.6 47.3583C1104.92 58.467 1102.44 65.0445 1102.15 67.0909C1101.85 68.8449 1100.83 73.6684 1099.08 81.5614C1097.91 87.1158 1097.32 92.3778 1097.32 97.3475C1097.32 102.317 1094.69 104.802 1089.43 104.802C1084.17 104.802 1081.54 102.171 1081.54 96.909C1081.54 84.631 1082.27 73.6684 1083.73 64.0214C1083.44 59.344 1083.73 52.328 1084.61 42.9733C1084.9 40.6346 1084.9 37.5651 1084.61 33.7647C1083.73 28.5027 1083.29 24.9947 1083.29 23.2407C1083.29 17.9787 1084.9 14.0322 1088.11 11.4012C1091.62 8.47781 1095.57 7.01614 1099.95 7.01614C1104.34 7.01614 1108.14 8.47781 1111.35 11.4012C1114.57 14.0322 1116.18 17.9787 1116.18 23.2407ZM1287.65 162.246C1288.81 171.893 1287.35 176.716 1283.26 176.716C1279.75 176.716 1273.47 172.77 1264.4 164.877C1257.39 158.738 1248.62 150.26 1238.09 139.444C1236.63 137.982 1233.71 136.082 1229.32 133.743C1224.94 133.743 1219.39 138.713 1212.66 148.652C1207.69 157.422 1201.7 167.8 1194.68 179.786C1190.88 185.048 1186.5 187.679 1181.53 187.679C1173.93 187.679 1170.13 183.732 1170.13 175.839C1170.13 172.039 1171.44 168.239 1174.07 164.438C1200.38 127.312 1218.8 108.749 1229.32 108.749C1233.42 108.749 1239.12 112.695 1246.43 120.588L1253.88 128.043C1251.25 119.565 1246.43 106.41 1239.41 88.5775C1230.64 67.237 1224.65 55.3975 1221.43 53.0588C1218.22 50.4278 1214.71 47.7968 1210.91 45.1658C1205.35 39.9038 1202.58 33.7647 1202.58 26.7487C1202.58 21.4867 1204.18 17.5402 1207.4 14.9092C1210.62 11.9858 1214.42 10.5241 1218.8 10.5241C1229.91 10.5241 1235.46 15.9323 1235.46 26.7487C1235.46 29.3797 1236.34 31.5722 1238.09 33.3262C1238.68 33.9109 1240.43 36.8343 1243.36 42.0963C1253.3 59.9287 1262.36 79.2228 1270.54 99.9785C1280.19 124.827 1285.89 145.583 1287.65 162.246ZM1431.36 162.684C1432.24 170.285 1428.73 174.085 1420.84 174.085C1414.7 174.085 1411.34 170.87 1410.75 164.438C1408.12 136.374 1406.81 104.51 1406.81 68.8449C1406.81 66.2139 1406.81 63.1444 1406.81 59.6364C1407.1 56.4207 1407.25 54.2282 1407.25 53.0588C1407.25 49.2585 1405.93 46.6275 1403.3 45.1658C1400.96 43.7041 1395.85 42.9733 1387.95 42.9733C1373.34 42.9733 1362.81 43.8503 1356.38 45.6043L1350.24 153.037C1349.66 159.469 1346.44 162.684 1340.59 162.684C1334.46 162.684 1331.24 159.469 1330.95 153.037L1323.93 37.2728C1323.64 32.3031 1325.1 28.3566 1328.32 25.4332C1331.53 22.2175 1335.62 20.6097 1340.59 20.6097C1340.89 20.6097 1341.33 20.7558 1341.91 21.0482C1348.34 21.6329 1352.87 24.41 1355.5 29.3797C1356.09 29.3797 1356.67 29.3797 1357.26 29.3797C1360.47 29.0874 1365.59 28.0642 1372.61 26.3102C1378.16 25.1409 1383.28 24.5562 1387.95 24.5562C1405.79 24.5562 1417.33 28.0642 1422.59 35.0802C1426.69 40.3423 1428.73 51.5971 1428.73 68.8449C1428.73 110.064 1429.61 141.344 1431.36 162.684Z" fill="#F5F0D5"/>
</svg>
